<svg width="412" height="532" viewBox="0 0 412 532" fill="none" xmlns="http://www.w3.org/2000/svg">
<path d="M392 0C403.046 5.15406e-07 412 8.95431 412 20V512C412 523.046 403.046 532 392 532H391.95C402.996 532 411.95 523.046 411.95 512V402H411.7V442.337C411.7 464.428 393.791 482.337 371.7 482.337H346.862C331.624 482.337 319.271 494.69 319.271 509.928C319.271 522.118 309.389 532 297.199 532H141.95V402H141.7V532H20C8.95431 532 0 523.046 0 512V20C0 8.95431 8.95431 5.15405e-07 20 0H392Z" fill="#EFF6FF"/>
</svg>
